<?xml version="1.0" encoding="UTF-8" standalone="no"?>
<svg width="222px" height="197px" viewBox="0 0 222 197" version="1.1" xmlns="http://www.w3.org/2000/svg" xmlns:xlink="http://www.w3.org/1999/xlink" xmlns:sketch="http://www.bohemiancoding.com/sketch/ns">
    <!-- Generator: Sketch 3.4.1 (15681) - http://www.bohemiancoding.com/sketch -->
    <title>base</title>
    <desc>Created with Sketch.</desc>
    <defs>
        <path id="path-1" d="M109.813332,224.057332 C131.7362,224.057332 149.508195,175.151599 149.508195,114.823319 C149.508195,54.4950394 131.7362,5.58930585 109.813332,5.58930585 C87.8904638,5.58930585 70.1184679,54.4950394 70.1184679,114.823319 C70.1184679,175.151599 87.8904638,224.057332 109.813332,224.057332 Z"></path>
    </defs>
    <g id="Page-1" stroke="none" stroke-width="1" fill="none" fill-rule="evenodd" sketch:type="MSPage">
        <g id="Artboard-1" sketch:type="MSArtboardGroup" transform="translate(-30.000000, -10.000000)">
            <g id="base" sketch:type="MSLayerGroup" transform="translate(31.000000, -6.000000)">
                <ellipse id="Oval-4" fill-opacity="0.6" fill="#3D5760" sketch:type="MSShapeGroup" cx="109.5" cy="114.5" rx="30.5" ry="30.5"></ellipse>
                <text id="ACS" sketch:type="MSTextLayer" font-family="Anton" font-size="36" font-weight="normal" sketch:alignment="middle" fill="#FFFFFF">
                    <tspan x="85.0908203" y="128">ACS</tspan>
                </text>
                <g id="Oval-1" opacity="0.7">
                    <use stroke="#979797" stroke-width="3" sketch:type="MSShapeGroup" transform="translate(109.813332, 114.823319) rotate(150.000000) translate(-109.813332, -114.823319) " xlink:href="#path-1"></use>
                    <use stroke="none" xlink:href="#path-1"></use>
                </g>
                <path d="M109.813332,224.057332 C131.7362,224.057332 149.508195,175.151599 149.508195,114.823319 C149.508195,54.4950394 131.7362,5.58930585 109.813332,5.58930585 C87.8904638,5.58930585 70.1184679,54.4950394 70.1184679,114.823319 C70.1184679,175.151599 87.8904638,224.057332 109.813332,224.057332 Z" id="Oval-1" stroke="#979797" stroke-width="3" opacity="0.698519123" sketch:type="MSShapeGroup" transform="translate(109.813332, 114.823319) rotate(30.000000) translate(-109.813332, -114.823319) "></path>
                <path d="M109.813332,224.057332 C131.7362,224.057332 149.508195,175.151599 149.508195,114.823319 C149.508195,54.4950394 131.7362,5.58930585 109.813332,5.58930585 C87.8904638,5.58930585 70.1184679,54.4950394 70.1184679,114.823319 C70.1184679,175.151599 87.8904638,224.057332 109.813332,224.057332 Z" id="Oval-1" stroke="#979797" stroke-width="3" opacity="0.7" sketch:type="MSShapeGroup" transform="translate(109.813332, 114.823319) rotate(270.000000) translate(-109.813332, -114.823319) "></path>
            </g>
        </g>
    </g>
</svg>