<?xml version="1.0" encoding="UTF-8" standalone="no"?>
<svg width="340px" height="520px" viewBox="0 0 340 520" version="1.1" xmlns="http://www.w3.org/2000/svg" xmlns:xlink="http://www.w3.org/1999/xlink">
    <!-- Generator: Sketch 3.6.1 (26313) - http://www.bohemiancoding.com/sketch -->
    <title>Dribble</title>
    <desc>Created with Sketch.</desc>
    <defs></defs>
    <g id="Page-1" stroke="none" stroke-width="1" fill="none" fill-rule="evenodd">
        <g id="Dribble">
            <g id="clean_code" transform="translate(53.000000, 50.000000)">
                <g id="Layer_1">
                    <path d="M2,16 L11,16 C12.658,16 14,14.656 14,13 L14,4 L41,4 C41.552,4 42,4.448 42,5 L42,55 C42,55.55 41.552,56 41,56 L3,56 C2.45,56 2,55.55 2,55 L2,16 L2,16 Z M11,14 L4,14 L12,6 L12,13 C12,13.552 11.55,14 11,14 L11,14 Z M0,55 C0,56.656 1.344,58 3,58 L41,58 C42.656,58 44,56.656 44,55 L44,5 C44,3.344 42.656,2 41,2 L14,2 C12.758,2 12.708,2.464 12,3.172 L1.172,14 C0.464,14.708 0,14.736 0,16 L0,55 L0,55 Z" id="Shape" fill="#413A4D"></path>
                    <path d="M15.2,44.6 L8.75,36 L15.2,27.4 L16.8,28.6 L11.25,36 L16.8,43.4 L15.2,44.6 L15.2,44.6 Z M35.25,36 L28.8,27.4 L27.2,28.6 L32.75,36 L27.2,43.4 L28.802,44.6 L35.25,36 L35.25,36 Z" id="Shape" fill="#8BC72A"></path>
                    <path d="M38,8 L36,8 L36,0 L38,0 L38,8 L38,8 Z M38,14 L36,14 L36,22 L38,22 L38,14 L38,14 Z M48,12 L48,10 L40,10 L40,12 L48,12 L48,12 Z M34,12 L34,10 L26,10 L26,12 L34,12 L34,12 Z" id="Shape" fill="#34B5C7"></path>
                </g>
            </g>
            <text id="Clean-Code" font-family="Lato-Light, Lato" font-size="24" font-weight="300" fill="#FFFFFF">
                <tspan x="24.0414287" y="154">Clean Code</tspan>
            </text>
            <text id="Cross-Platform" font-family="Lato-Light, Lato" font-size="24" font-weight="300" fill="#FFFFFF">
                <tspan x="179.967429" y="154">Cross-Platform</tspan>
            </text>
            <text id="Responsive" font-family="Lato-Light, Lato" font-size="24" font-weight="300" fill="#FFFFFF">
                <tspan x="18.5834287" y="311">Responsive</tspan>
            </text>
            <text id="Documentation" font-family="Lato-Light, Lato" font-size="24" font-weight="300" fill="#FFFFFF">
                <tspan x="13.7674287" y="472">Documentation</tspan>
            </text>
            <text id="Secure" font-family="Lato-Light, Lato" font-size="24" font-weight="300" fill="#FFFFFF">
                <tspan x="228.479429" y="472">Secure</tspan>
            </text>
            <text id="Pixel-Perfect" font-family="Lato-Light, Lato" font-size="24" font-weight="300" fill="#FFFFFF">
                <tspan x="182.721429" y="311">Pixel Perfect</tspan>
            </text>
            <g id="responsive" transform="translate(45.000000, 218.000000)">
                <g id="Layer_1">
                    <path d="M26,14 C26,12.896 25.104,12 24,12 L10,12 C8.896,12 8,12.896 8,14 L8,36 C8,37.106 8.896,38 10,38 L24,38 C25.104,38 26,37.106 26,36 L26,14 L26,14 Z" id="Shape" fill="#E66910"></path>
                    <path d="M58,4 L6,4 C4.896,4 4,4.896 4,6 L4,34 C4,35.106 4.896,36 6,36 L6,14 C6,11.792 7.792,10 10,10 L24,10 C26.208,10 28,11.792 28,14 L28,36 L58,36 C59.106,36 60,35.106 60,34 L60,6 C60,4.896 59.106,4 58,4 L58,4 Z" id="Shape" fill="#34B5C7"></path>
                    <path d="M13.494,28.188 L11.558,27.692 L9.566,35.438 L17.314,37.43 L17.814,35.494 L13.372,34.352 L26,26.888 L26,24.564 L12.352,32.628 L13.494,28.188 L13.494,28.188 Z M58,0 L6,0 C2.686,0 0,2.686 0,6 L0,34 C0,37.146 2.434,39.702 5.518,39.952 C6.618,41.198 8.208,42 10,42 L24,42 C25.77,42 27.344,41.218 28.442,40 L58,40 C61.312,40 64,37.312 64,34 L64,6 C64,2.686 61.312,0 58,0 L58,0 Z M28,36 C28,38.208 26.208,40 24,40 L10,40 C7.792,40 6,38.208 6,36 L6,14 C6,11.792 7.792,10 10,10 L24,10 C26.208,10 28,11.792 28,14 L28,36 L28,36 Z M62,34 C62,36.208 60.208,38 58,38 L29.632,38 C29.856,37.372 30,36.706 30,36 L30,24.526 L55.648,9.37 L54.508,13.812 L56.444,14.31 L58.436,6.562 L50.688,4.568 L50.19,6.506 L54.632,7.648 L30,22.202 L30,14 C30,10.686 27.314,8 24,8 L10,8 C6.686,8 4,10.686 4,14 L4,36 C4,36.546 4.098,37.068 4.234,37.572 C2.916,36.918 2,35.572 2,34 L2,6 C2,3.792 3.792,2 6,2 L58,2 C60.208,2 62,3.792 62,6 L62,34 L62,34 Z" id="Shape" fill="#413A4D"></path>
                </g>
            </g>
            <g id="pixel_perfect" transform="translate(221.000000, 209.000000)">
                <g id="Layer_1">
                    <path d="M38,14 L14,14 L14,38 L38,38 L38,14 L38,14 Z" id="Shape" fill="#8BC72A"></path>
                    <path d="M14,6 L14,14 L6,14 L6,12 L10.586,12 L0,1.414 L1.414,0 L12,10.586 L12,6 L14,6 Z" id="Shape" fill="#413A4D"></path>
                    <path d="M12,46 L12,41.414 L1.414,52 L0,50.586 L10.586,40 L6,40 L6,38 L14,38 L14,46 L12,46 Z" id="Shape" fill="#413A4D"></path>
                    <path d="M40,6 L40,10.586 L50.586,0 L52,1.414 L41.414,12 L46,12 L46,14 L38,14 L38,6 L40,6 Z" id="Shape" fill="#413A4D"></path>
                    <path d="M38,46 L38,38 L46,38 L46,40 L41.414,40 L52,50.586 L50.586,52 L40,41.414 L40,46 L38,46 Z" id="Shape" fill="#413A4D"></path>
                    <path d="M29,30.414 L22.292,23.708 L23.708,22.292 L29,27.586 L42.292,14.292 L43.708,15.708 L29,30.414 Z" id="Shape" fill="#413A4D"></path>
                </g>
            </g>
            <g id="cross_platform" transform="translate(237.000000, 55.000000)">
                <g id="Layer_1">
                    <path d="M26,26 L26,2.04 C12.998,2.554 2.572,12.988 2.058,26 L26,26 L26,26 Z" id="Shape" fill="#8BC72A"></path>
                    <path d="M48.246,13.926 C44.018,7.054 36.582,2.378 28,2.04 L28,26 L41.126,26 C41.708,21.308 44.32,17.094 48.246,13.926 L48.246,13.926 Z" id="Shape" fill="#413A4D"></path>
                    <path d="M17.25,52 C21.98,52 22.634,49.6 26,49.192 L26,28 L2.056,28 C2.564,37.342 10.01,52 17.25,52 L17.25,52 Z M41,28 L28,28 L28,49.214 C31.25,49.638 32.042,52 36.75,52 C40.81,52 44.936,47.424 47.866,41.74 C43.622,38.154 41,33.328 41,28 L41,28 Z" id="Shape" fill="#34B5C7"></path>
                    <path d="M53.778,1.778 L52.364,0.364 L44.014,8.714 C39.778,4.768 34.182,2.284 28,2.038 L28,26 L41.126,26 C41.71,21.3 44.328,17.082 48.264,13.91 C47.432,12.564 46.482,11.298 45.42,10.136 L53.778,1.778 L53.778,1.778 Z M45.646,13.59 C42.542,16.498 40.35,20.064 39.452,24 L30,24 L30,4.194 C36.428,5.042 42.024,8.556 45.646,13.59 L45.646,13.59 Z M41,28 L28,28 L28,49.214 C31.25,49.638 32.042,52 36.75,52 C40.806,52 44.926,47.418 47.86,41.736 C43.62,38.152 41,33.326 41,28 L41,28 Z M36.75,50 C34.556,50 33.504,49.402 32.286,48.708 C31.612,48.326 30.884,47.92 30,47.614 L30,30 L39.112,30 C39.626,34.602 41.89,38.792 45.348,42.14 C42.798,46.616 39.594,50 36.75,50 L36.75,50 Z M1.778,0.364 L0.364,1.778 L8.648,10.062 C4.75,14.29 2.3,19.856 2.054,26 L26,26 L26,2.038 C19.854,2.284 14.288,4.74 10.06,8.648 L1.778,0.364 L1.778,0.364 Z M24,4.208 L24,24 L4.226,24 C5.574,13.716 13.72,5.558 24,4.208 L24,4.208 Z M17.25,52 C21.98,52 22.634,49.6 26,49.192 L26,28 L2.056,28 C2.564,37.342 10.01,52 17.25,52 L17.25,52 Z M24,47.604 C23.076,47.916 22.322,48.332 21.632,48.73 C20.396,49.44 19.42,50 17.25,50 C12.036,50 5.598,38.654 4.268,30 L24,30 L24,47.604 L24,47.604 Z" id="Shape" fill="#413A4D"></path>
                </g>
            </g>
            <g id="documentation" transform="translate(53.000000, 358.000000)">
                <g id="Layer_1">
                    <path d="M4,26 L18,26 L18,28 L4,28 L4,26 L4,26 Z M4,32 L32,32 L32,34 L4,34 L4,32 L4,32 Z M4,38 L32,38 L32,40 L4,40 L4,38 L4,38 Z M4,44 L32,44 L32,46 L4,46 L4,44 L4,44 Z M4,50 L32,50 L32,52 L4,52 L4,50 L4,50 Z" id="Shape" fill="#34B5C7"></path>
                    <path d="M22,14 L30,14 L30,16 L22,16 L22,14 L22,14 Z M44,20 L28,20 L30,22 L44,22 L44,20 L44,20 Z M34,26 L44,26 L44,28 L34,28 L34,26 L34,26 Z M34,32 L44,32 L44,34 L34,34 L34,32 L34,32 Z M34,38 L44,38 L44,40 L34,40 L34,38 L34,38 Z" id="Shape" fill="#E66910"></path>
                    <path d="M46.828,14 L34,1.172 C33.292,0.464 33.242,0 32,0 L15,0 C13.344,0 12,1.344 12,3 L12,12 L3,12 C1.344,12 0,13.344 0,15 L0,57 C0,58.656 1.344,60 3,60 L33,60 C34.656,60 36,58.656 36,57 L36,48 L45,48 C46.656,48 48,46.656 48,45 L48,16 C48,14.736 47.536,14.708 46.828,14 L46.828,14 Z M34,4 L44,14 L35,14 C34.45,14 34,13.552 34,13 L34,4 L34,4 Z M34,57 C34,57.55 33.55,58 33,58 L3,58 C2.448,58 2,57.55 2,57 L2,15 C2,14.448 2.448,14 3,14 L20,14 L20,25 C20,26.656 21.342,28 23,28 L34,28 L34,57 L34,57 Z M22,25 L22,16 L32,26 L23,26 C22.448,26 22,25.552 22,25 L22,25 Z M46,45 C46,45.55 45.55,46 45,46 L36,46 L36,28 C36,26.736 35.536,26.708 34.828,26 L22,13.172 C21.292,12.464 21.242,12 20,12 L14,12 L14,3 C14,2.448 14.448,2 15,2 L32,2 L32,13 C32,14.656 33.344,16 35,16 L46,16 L46,45 L46,45 Z" id="Shape" fill="#413A4D"></path>
                </g>
            </g>
            <g id="privacy" transform="translate(247.000000, 366.000000)">
                <g id="Layer_1">
                    <path d="M42,52 L2,52 L2,22 L42,22 L42,52 L42,52 Z M22,26 C15.926,26 11,30.926 11,37 C11,43.076 15.926,48 22,48 C28.076,48 33,43.076 33,37 C33,30.926 28.076,26 22,26 L22,26 Z" id="Shape" fill="#E66910"></path>
                    <path d="M42.998,22 L36,22 L36,14 C36,6.266 29.734,0 22,0 C14.266,0 8,6.266 8,14 L8,22 L1,22 C0.448,22 0,22.448 0,23 L0,51 C0,51.552 0.448,52 1,52 L42.998,52 C43.55,52 43.998,51.552 43.998,51 L43.998,23 C43.998,22.448 43.55,22 42.998,22 L42.998,22 Z M10,14 C10,7.372 15.372,2 22,2 C28.628,2 34,7.372 34,14 L34,22 L30,22 L30,14 C30,9.582 26.42,6 22,6 C17.582,6 14,9.582 14,14 L14,22 L10,22 L10,14 L10,14 Z M28,14 L28,22 L16,22 L16,14 C16,10.686 18.686,8 22,8 C25.314,8 28,10.686 28,14 L28,14 Z M42,50 L1.998,50 L1.998,24 L42,24 L42,50 L42,50 Z M29.992,36 L14.008,36 L14.008,38 L29.992,38 L29.992,36 L29.992,36 Z" id="Shape" fill="#413A4D"></path>
                </g>
            </g>
        </g>
    </g>
</svg>