<?xml version="1.0" encoding="UTF-8" standalone="no"?>
<svg width="48px" height="58px" viewBox="0 0 48 58" version="1.1" xmlns="http://www.w3.org/2000/svg" xmlns:xlink="http://www.w3.org/1999/xlink">
    <!-- Generator: Sketch 3.6.1 (26313) - http://www.bohemiancoding.com/sketch -->
    <title>clean_code</title>
    <desc>Created with Sketch.</desc>
    <defs></defs>
    <g id="Page-1" stroke="none" stroke-width="1" fill="none" fill-rule="evenodd">
        <g id="Dribble" transform="translate(-53.000000, -50.000000)">
            <g id="clean_code" transform="translate(53.000000, 50.000000)">
                <g id="Layer_1">
                    <path d="M2,16 L11,16 C12.658,16 14,14.656 14,13 L14,4 L41,4 C41.552,4 42,4.448 42,5 L42,55 C42,55.55 41.552,56 41,56 L3,56 C2.45,56 2,55.55 2,55 L2,16 L2,16 Z M11,14 L4,14 L12,6 L12,13 C12,13.552 11.55,14 11,14 L11,14 Z M0,55 C0,56.656 1.344,58 3,58 L41,58 C42.656,58 44,56.656 44,55 L44,5 C44,3.344 42.656,2 41,2 L14,2 C12.758,2 12.708,2.464 12,3.172 L1.172,14 C0.464,14.708 0,14.736 0,16 L0,55 L0,55 Z" id="Shape" fill="#413A4D"></path>
                    <path d="M15.2,44.6 L8.75,36 L15.2,27.4 L16.8,28.6 L11.25,36 L16.8,43.4 L15.2,44.6 L15.2,44.6 Z M35.25,36 L28.8,27.4 L27.2,28.6 L32.75,36 L27.2,43.4 L28.802,44.6 L35.25,36 L35.25,36 Z" id="Shape" fill="#8BC72A"></path>
                    <path d="M38,8 L36,8 L36,0 L38,0 L38,8 L38,8 Z M38,14 L36,14 L36,22 L38,22 L38,14 L38,14 Z M48,12 L48,10 L40,10 L40,12 L48,12 L48,12 Z M34,12 L34,10 L26,10 L26,12 L34,12 L34,12 Z" id="Shape" fill="#34B5C7"></path>
                </g>
            </g>
        </g>
    </g>
</svg>