<?xml version="1.0" encoding="UTF-8" standalone="no"?>
<svg width="54px" height="52px" viewBox="0 0 54 52" version="1.1" xmlns="http://www.w3.org/2000/svg" xmlns:xlink="http://www.w3.org/1999/xlink">
    <!-- Generator: Sketch 3.6.1 (26313) - http://www.bohemiancoding.com/sketch -->
    <title>cross_platform</title>
    <desc>Created with Sketch.</desc>
    <defs></defs>
    <g id="Page-1" stroke="none" stroke-width="1" fill="none" fill-rule="evenodd">
        <g id="Dribble" transform="translate(-237.000000, -55.000000)">
            <g id="cross_platform" transform="translate(237.000000, 55.000000)">
                <g id="Layer_1">
                    <path d="M26,26 L26,2.04 C12.998,2.554 2.572,12.988 2.058,26 L26,26 L26,26 Z" id="Shape" fill="#8BC72A"></path>
                    <path d="M48.246,13.926 C44.018,7.054 36.582,2.378 28,2.04 L28,26 L41.126,26 C41.708,21.308 44.32,17.094 48.246,13.926 L48.246,13.926 Z" id="Shape" fill="#413A4D"></path>
                    <path d="M17.25,52 C21.98,52 22.634,49.6 26,49.192 L26,28 L2.056,28 C2.564,37.342 10.01,52 17.25,52 L17.25,52 Z M41,28 L28,28 L28,49.214 C31.25,49.638 32.042,52 36.75,52 C40.81,52 44.936,47.424 47.866,41.74 C43.622,38.154 41,33.328 41,28 L41,28 Z" id="Shape" fill="#34B5C7"></path>
                    <path d="M53.778,1.778 L52.364,0.364 L44.014,8.714 C39.778,4.768 34.182,2.284 28,2.038 L28,26 L41.126,26 C41.71,21.3 44.328,17.082 48.264,13.91 C47.432,12.564 46.482,11.298 45.42,10.136 L53.778,1.778 L53.778,1.778 Z M45.646,13.59 C42.542,16.498 40.35,20.064 39.452,24 L30,24 L30,4.194 C36.428,5.042 42.024,8.556 45.646,13.59 L45.646,13.59 Z M41,28 L28,28 L28,49.214 C31.25,49.638 32.042,52 36.75,52 C40.806,52 44.926,47.418 47.86,41.736 C43.62,38.152 41,33.326 41,28 L41,28 Z M36.75,50 C34.556,50 33.504,49.402 32.286,48.708 C31.612,48.326 30.884,47.92 30,47.614 L30,30 L39.112,30 C39.626,34.602 41.89,38.792 45.348,42.14 C42.798,46.616 39.594,50 36.75,50 L36.75,50 Z M1.778,0.364 L0.364,1.778 L8.648,10.062 C4.75,14.29 2.3,19.856 2.054,26 L26,26 L26,2.038 C19.854,2.284 14.288,4.74 10.06,8.648 L1.778,0.364 L1.778,0.364 Z M24,4.208 L24,24 L4.226,24 C5.574,13.716 13.72,5.558 24,4.208 L24,4.208 Z M17.25,52 C21.98,52 22.634,49.6 26,49.192 L26,28 L2.056,28 C2.564,37.342 10.01,52 17.25,52 L17.25,52 Z M24,47.604 C23.076,47.916 22.322,48.332 21.632,48.73 C20.396,49.44 19.42,50 17.25,50 C12.036,50 5.598,38.654 4.268,30 L24,30 L24,47.604 L24,47.604 Z" id="Shape" fill="#413A4D"></path>
                </g>
            </g>
        </g>
    </g>
</svg>