<?xml version="1.0" encoding="UTF-8" standalone="no"?>
<svg width="48px" height="60px" viewBox="0 0 48 60" version="1.1" xmlns="http://www.w3.org/2000/svg" xmlns:xlink="http://www.w3.org/1999/xlink">
    <!-- Generator: Sketch 3.6.1 (26313) - http://www.bohemiancoding.com/sketch -->
    <title>documentation</title>
    <desc>Created with Sketch.</desc>
    <defs></defs>
    <g id="Page-1" stroke="none" stroke-width="1" fill="none" fill-rule="evenodd">
        <g id="Dribble" transform="translate(-53.000000, -358.000000)">
            <g id="documentation" transform="translate(53.000000, 358.000000)">
                <g id="Layer_1">
                    <path d="M4,26 L18,26 L18,28 L4,28 L4,26 L4,26 Z M4,32 L32,32 L32,34 L4,34 L4,32 L4,32 Z M4,38 L32,38 L32,40 L4,40 L4,38 L4,38 Z M4,44 L32,44 L32,46 L4,46 L4,44 L4,44 Z M4,50 L32,50 L32,52 L4,52 L4,50 L4,50 Z" id="Shape" fill="#34B5C7"></path>
                    <path d="M22,14 L30,14 L30,16 L22,16 L22,14 L22,14 Z M44,20 L28,20 L30,22 L44,22 L44,20 L44,20 Z M34,26 L44,26 L44,28 L34,28 L34,26 L34,26 Z M34,32 L44,32 L44,34 L34,34 L34,32 L34,32 Z M34,38 L44,38 L44,40 L34,40 L34,38 L34,38 Z" id="Shape" fill="#E66910"></path>
                    <path d="M46.828,14 L34,1.172 C33.292,0.464 33.242,0 32,0 L15,0 C13.344,0 12,1.344 12,3 L12,12 L3,12 C1.344,12 0,13.344 0,15 L0,57 C0,58.656 1.344,60 3,60 L33,60 C34.656,60 36,58.656 36,57 L36,48 L45,48 C46.656,48 48,46.656 48,45 L48,16 C48,14.736 47.536,14.708 46.828,14 L46.828,14 Z M34,4 L44,14 L35,14 C34.45,14 34,13.552 34,13 L34,4 L34,4 Z M34,57 C34,57.55 33.55,58 33,58 L3,58 C2.448,58 2,57.55 2,57 L2,15 C2,14.448 2.448,14 3,14 L20,14 L20,25 C20,26.656 21.342,28 23,28 L34,28 L34,57 L34,57 Z M22,25 L22,16 L32,26 L23,26 C22.448,26 22,25.552 22,25 L22,25 Z M46,45 C46,45.55 45.55,46 45,46 L36,46 L36,28 C36,26.736 35.536,26.708 34.828,26 L22,13.172 C21.292,12.464 21.242,12 20,12 L14,12 L14,3 C14,2.448 14.448,2 15,2 L32,2 L32,13 C32,14.656 33.344,16 35,16 L46,16 L46,45 L46,45 Z" id="Shape" fill="#413A4D"></path>
                </g>
            </g>
        </g>
    </g>
</svg>