<?xml version="1.0" encoding="UTF-8" standalone="no"?>
<svg width="52px" height="52px" viewBox="0 0 52 52" version="1.1" xmlns="http://www.w3.org/2000/svg" xmlns:xlink="http://www.w3.org/1999/xlink">
    <!-- Generator: Sketch 3.6.1 (26313) - http://www.bohemiancoding.com/sketch -->
    <title>pixel_perfect</title>
    <desc>Created with Sketch.</desc>
    <defs></defs>
    <g id="Page-1" stroke="none" stroke-width="1" fill="none" fill-rule="evenodd">
        <g id="Dribble" transform="translate(-221.000000, -209.000000)">
            <g id="pixel_perfect" transform="translate(221.000000, 209.000000)">
                <g id="Layer_1">
                    <path d="M38,14 L14,14 L14,38 L38,38 L38,14 L38,14 Z" id="Shape" fill="#8BC72A"></path>
                    <path d="M14,6 L14,14 L6,14 L6,12 L10.586,12 L0,1.414 L1.414,0 L12,10.586 L12,6 L14,6 Z" id="Shape" fill="#413A4D"></path>
                    <path d="M12,46 L12,41.414 L1.414,52 L0,50.586 L10.586,40 L6,40 L6,38 L14,38 L14,46 L12,46 Z" id="Shape" fill="#413A4D"></path>
                    <path d="M40,6 L40,10.586 L50.586,0 L52,1.414 L41.414,12 L46,12 L46,14 L38,14 L38,6 L40,6 Z" id="Shape" fill="#413A4D"></path>
                    <path d="M38,46 L38,38 L46,38 L46,40 L41.414,40 L52,50.586 L50.586,52 L40,41.414 L40,46 L38,46 Z" id="Shape" fill="#413A4D"></path>
                    <path d="M29,30.414 L22.292,23.708 L23.708,22.292 L29,27.586 L42.292,14.292 L43.708,15.708 L29,30.414 Z" id="Shape" fill="#413A4D"></path>
                </g>
            </g>
        </g>
    </g>
</svg>