<?xml version="1.0" encoding="UTF-8" standalone="no"?>
<svg width="44px" height="52px" viewBox="0 0 44 52" version="1.1" xmlns="http://www.w3.org/2000/svg" xmlns:xlink="http://www.w3.org/1999/xlink">
    <!-- Generator: Sketch 3.6.1 (26313) - http://www.bohemiancoding.com/sketch -->
    <title>privacy</title>
    <desc>Created with Sketch.</desc>
    <defs></defs>
    <g id="Page-1" stroke="none" stroke-width="1" fill="none" fill-rule="evenodd">
        <g id="Dribble" transform="translate(-247.000000, -366.000000)">
            <g id="privacy" transform="translate(247.000000, 366.000000)">
                <g id="Layer_1">
                    <path d="M42,52 L2,52 L2,22 L42,22 L42,52 L42,52 Z M22,26 C15.926,26 11,30.926 11,37 C11,43.076 15.926,48 22,48 C28.076,48 33,43.076 33,37 C33,30.926 28.076,26 22,26 L22,26 Z" id="Shape" fill="#E66910"></path>
                    <path d="M42.998,22 L36,22 L36,14 C36,6.266 29.734,0 22,0 C14.266,0 8,6.266 8,14 L8,22 L1,22 C0.448,22 0,22.448 0,23 L0,51 C0,51.552 0.448,52 1,52 L42.998,52 C43.55,52 43.998,51.552 43.998,51 L43.998,23 C43.998,22.448 43.55,22 42.998,22 L42.998,22 Z M10,14 C10,7.372 15.372,2 22,2 C28.628,2 34,7.372 34,14 L34,22 L30,22 L30,14 C30,9.582 26.42,6 22,6 C17.582,6 14,9.582 14,14 L14,22 L10,22 L10,14 L10,14 Z M28,14 L28,22 L16,22 L16,14 C16,10.686 18.686,8 22,8 C25.314,8 28,10.686 28,14 L28,14 Z M42,50 L1.998,50 L1.998,24 L42,24 L42,50 L42,50 Z M29.992,36 L14.008,36 L14.008,38 L29.992,38 L29.992,36 L29.992,36 Z" id="Shape" fill="#413A4D"></path>
                </g>
            </g>
        </g>
    </g>
</svg>