<?xml version="1.0" encoding="UTF-8" standalone="no"?>
<svg width="64px" height="42px" viewBox="0 0 64 42" version="1.1" xmlns="http://www.w3.org/2000/svg" xmlns:xlink="http://www.w3.org/1999/xlink">
    <!-- Generator: Sketch 3.6.1 (26313) - http://www.bohemiancoding.com/sketch -->
    <title>responsive</title>
    <desc>Created with Sketch.</desc>
    <defs></defs>
    <g id="Page-1" stroke="none" stroke-width="1" fill="none" fill-rule="evenodd">
        <g id="Dribble" transform="translate(-45.000000, -218.000000)">
            <g id="responsive" transform="translate(45.000000, 218.000000)">
                <g id="Layer_1">
                    <path d="M26,14 C26,12.896 25.104,12 24,12 L10,12 C8.896,12 8,12.896 8,14 L8,36 C8,37.106 8.896,38 10,38 L24,38 C25.104,38 26,37.106 26,36 L26,14 L26,14 Z" id="Shape" fill="#E66910"></path>
                    <path d="M58,4 L6,4 C4.896,4 4,4.896 4,6 L4,34 C4,35.106 4.896,36 6,36 L6,14 C6,11.792 7.792,10 10,10 L24,10 C26.208,10 28,11.792 28,14 L28,36 L58,36 C59.106,36 60,35.106 60,34 L60,6 C60,4.896 59.106,4 58,4 L58,4 Z" id="Shape" fill="#34B5C7"></path>
                    <path d="M13.494,28.188 L11.558,27.692 L9.566,35.438 L17.314,37.43 L17.814,35.494 L13.372,34.352 L26,26.888 L26,24.564 L12.352,32.628 L13.494,28.188 L13.494,28.188 Z M58,0 L6,0 C2.686,0 0,2.686 0,6 L0,34 C0,37.146 2.434,39.702 5.518,39.952 C6.618,41.198 8.208,42 10,42 L24,42 C25.77,42 27.344,41.218 28.442,40 L58,40 C61.312,40 64,37.312 64,34 L64,6 C64,2.686 61.312,0 58,0 L58,0 Z M28,36 C28,38.208 26.208,40 24,40 L10,40 C7.792,40 6,38.208 6,36 L6,14 C6,11.792 7.792,10 10,10 L24,10 C26.208,10 28,11.792 28,14 L28,36 L28,36 Z M62,34 C62,36.208 60.208,38 58,38 L29.632,38 C29.856,37.372 30,36.706 30,36 L30,24.526 L55.648,9.37 L54.508,13.812 L56.444,14.31 L58.436,6.562 L50.688,4.568 L50.19,6.506 L54.632,7.648 L30,22.202 L30,14 C30,10.686 27.314,8 24,8 L10,8 C6.686,8 4,10.686 4,14 L4,36 C4,36.546 4.098,37.068 4.234,37.572 C2.916,36.918 2,35.572 2,34 L2,6 C2,3.792 3.792,2 6,2 L58,2 C60.208,2 62,3.792 62,6 L62,34 L62,34 Z" id="Shape" fill="#413A4D"></path>
                </g>
            </g>
        </g>
    </g>
</svg>